<svg width="172" height="100" viewBox="0 0 172 100" fill="none" xmlns="http://www.w3.org/2000/svg">
<path d="M86 2C109.459 2 130.599 7.53284 145.806 16.374C161.063 25.2444 170 37.2029 170 50C170 62.7971 161.063 74.7556 145.806 83.626C130.599 92.4672 109.459 98 86 98C62.5411 98 41.4012 92.4672 26.1943 83.626C10.9372 74.7556 2 62.7971 2 50C2 37.2029 10.9372 25.2444 26.1943 16.374C41.4012 7.53284 62.5411 2 86 2Z" fill="white" stroke="black" stroke-width="4"/>
<path d="M49.4011 26H59.5024V58.4624C59.4902 61.5453 58.8696 64.2582 57.6407 66.6012C56.4241 68.9287 54.7405 70.7476 52.59 72.0578C50.4518 73.3526 47.9879 74 45.1983 74C42.7774 74 40.5655 73.4759 38.5624 72.4277C36.5593 71.3642 34.9618 69.6994 33.7698 67.4335C32.5778 65.1522 31.9879 62.1927 32.0002 58.5549H42.249C42.2859 59.7418 42.4456 60.7437 42.7283 61.5607C43.0232 62.3777 43.4287 62.9942 43.9449 63.4104C44.4733 63.8112 45.1123 64.0116 45.8619 64.0116C46.6238 64.0116 47.2628 63.8035 47.779 63.3873C48.3074 62.9711 48.7068 62.3545 48.9771 61.5376C49.2475 60.7052 49.3888 59.6802 49.4011 58.4624V26Z" fill="black"/>
<path d="M74.6821 26L82.4241 59.3873H82.719L90.4609 26H102.037L89.5761 73.3526H75.5669L63.1061 26H74.6821Z" fill="black"/>
<path d="M120.198 73.3526H105.673V26H120.051C123.934 26 127.289 26.948 130.115 28.8439C132.954 30.7245 135.141 33.4374 136.677 36.9827C138.226 40.5125 139 44.7437 139 49.6763C139 54.6089 138.232 58.8478 136.696 62.3931C135.16 65.9229 132.985 68.6358 130.171 70.5318C127.356 72.4123 124.032 73.3526 120.198 73.3526ZM115.922 62.4393H119.83C121.697 62.4393 123.289 62.0617 124.604 61.3064C125.931 60.5511 126.939 59.2486 127.627 57.3988C128.327 55.5491 128.677 52.975 128.677 49.6763C128.677 46.3776 128.321 43.8035 127.608 41.9538C126.908 40.104 125.876 38.8015 124.512 38.0462C123.16 37.2909 121.501 36.9133 119.535 36.9133H115.922V62.4393Z" fill="black"/>
</svg>
